HIERARCHY
ROOT hip
{
	OFFSET 0.000000 0.000000 0.000000 
	CHANNELS 6 Xposition Yposition Zposition Xrotation Zrotation Yrotation
	JOINT abdomen
	{
		OFFSET 0.000000 3.402643 0.000000 
		CHANNELS 3 Xrotation Zrotation Yrotation
		JOINT chest
		{
			OFFSET 0.000000 8.438565 -0.680529 
			CHANNELS 3 Xrotation Zrotation Yrotation
			JOINT neck
			{
				OFFSET 0.000000 10.207942 -0.272212 
				CHANNELS 3 Xrotation Zrotation Yrotation
				JOINT head
				{
					OFFSET 0.000000 3.130431 0.000000 
					CHANNELS 3 Xrotation Zrotation Yrotation
					End Site
					{
						OFFSET 0.000000 3.130435 0.000000 
					}
				}
			}
			JOINT lCollar
			{
				OFFSET 3.470700 6.669187 -0.816635 
				CHANNELS 3 Yrotation Zrotation Xrotation
				JOINT lShldr
				{
					OFFSET 3.198488 0.000000 0.000000 
					CHANNELS 3 Zrotation Yrotation Xrotation
					JOINT lForeArm
					{
						OFFSET 10.139888 0.000000 0.000000 
						CHANNELS 3 Yrotation Zrotation Xrotation
						JOINT lHand
						{
							OFFSET 8.370511 0.000000 0.000000 
							CHANNELS 3 Zrotation Yrotation Xrotation
							End Site
							{
								OFFSET 4.083176 0.000000 0.000000 
							}
						}
					}
				}
			}
			JOINT rCollar
			{
				OFFSET -3.470700 6.669187 -0.816635 
				CHANNELS 3 Yrotation Zrotation Xrotation
				JOINT rShldr
				{
					OFFSET -3.198488 0.000000 0.000000 
					CHANNELS 3 Zrotation Yrotation Xrotation
					JOINT rForeArm
					{
						OFFSET -10.139888 0.000000 0.000000 
						CHANNELS 3 Yrotation Zrotation Xrotation
						JOINT rHand
						{
							OFFSET -8.370511 0.000000 0.000000 
							CHANNELS 3 Zrotation Yrotation Xrotation
							End Site
							{
								OFFSET -4.083176 0.000000 0.000000 
							}
						}
					}
				}
			}
		}
	}
	JOINT lThigh
	{
		OFFSET 5.308129 -1.633274 1.361059 
		CHANNELS 3 Xrotation Zrotation Yrotation
		JOINT lShin
		{
			OFFSET -2.041588 -20.007561 0.000000 
			CHANNELS 3 Xrotation Zrotation Yrotation
			JOINT lFoot
			{
				OFFSET 0.000000 -19.190928 -1.224953 
				CHANNELS 3 Xrotation Yrotation Zrotation
				End Site
				{
					OFFSET 0.000000 -2.449906 4.627600 
				}
			}
		}
	}
	JOINT rThigh
	{
		OFFSET -5.308129 -1.633274 1.361059 
		CHANNELS 3 Xrotation Zrotation Yrotation
		JOINT rShin
		{
			OFFSET 2.041588 -20.007561 0.000000 
			CHANNELS 3 Xrotation Zrotation Yrotation
			JOINT rFoot
			{
				OFFSET 0.000000 -19.190928 -1.224953 
				CHANNELS 3 Xrotation Yrotation Zrotation
				End Site
				{
					OFFSET 0.000000 -2.449906 4.627600 
				}
			}
		}
	}
}
MOTION
Frames: 18
Frame Time: 0.033333
39.192688 68.244720 -11.447142 7.535731 4.744017 122.570465 0.000000 0.000000 0.000000 -4.053757 -1.285839 -7.975310 -8.603516 0.000000 0.000000 -21.133253 -5.610861 -10.455676 -2.957607 -0.090307 -0.002318 94.524200 -14.183534 -144.833328 -36.682487 -22.621681 7.938988 102.261826 -53.816349 -40.754963 2.957607 0.090307 -0.002334 -76.628143 9.916954 -102.936752 22.949062 7.896478 4.919693 -113.670898 48.792915 -16.681374 10.598744 16.204369 11.175239 3.920096 -11.828625 4.125535 47.866428 -14.906050 -11.498145 13.330679 -8.172032 -29.842497 6.590654 6.322958 3.753951 39.639046 15.255374 12.194124 
39.736202 70.099823 -11.171137 7.227873 5.260835 123.293961 0.000000 0.000000 0.000000 -4.707523 -0.827278 -8.672119 -8.603516 0.000000 0.000000 -23.069994 -6.084058 -10.087177 -2.957607 -0.090307 -0.002318 94.618805 -11.849491 -147.367142 -38.288563 -23.753492 7.690776 105.144890 -53.064098 -40.939964 2.957607 0.090307 -0.002334 -76.163292 7.214612 -104.781013 24.611147 8.509208 5.437591 -116.349594 50.346371 -16.302822 12.894889 17.622742 10.067913 4.027016 -11.630105 4.221057 47.843975 -15.182839 -10.890246 15.772290 -6.923490 -28.952505 6.693748 6.319594 4.134050 40.551216 16.212412 11.806188 
40.285271 71.835510 -10.872360 7.127192 5.853179 123.728783 0.000000 0.000000 0.000000 -5.136805 -0.330698 -9.120664 -8.603516 0.000000 0.000000 -25.412939 -6.610294 -9.571345 -2.957607 -0.090307 -0.002318 94.975090 -9.998861 -150.280182 -38.431026 -24.666973 8.000513 105.005241 -52.541809 -39.626968 2.957607 0.090307 -0.002334 -76.275703 4.762130 -106.378876 24.668354 7.918986 6.383196 -115.155907 52.057251 -11.505642 14.723824 19.060450 8.881769 4.359793 -11.370929 4.618015 46.853142 -14.440699 -10.441621 18.078999 -6.445365 -27.900772 6.244953 6.496750 4.585857 41.492252 16.866091 11.644803 
40.709248 73.192757 -10.667503 7.171620 6.240250 124.114334 0.000000 0.000000 0.000000 -5.302737 -0.058343 -9.545366 -8.603516 0.000000 0.000000 -27.848648 -7.263372 -9.040466 -2.957607 -0.090307 -0.002318 97.069420 -10.104786 -150.026443 -33.887531 -22.646236 8.971450 87.023392 -53.630363 -26.341743 2.957607 0.090307 -0.002334 -76.743813 3.935093 -106.996872 21.286959 6.936849 6.352252 -99.897423 45.397278 -3.465321 15.806595 20.406836 8.296369 4.144792 -11.487087 4.791264 45.498077 -12.256147 -10.199509 19.376490 -6.874842 -26.975496 5.937474 6.468725 4.526241 40.292133 15.448675 12.756960 
40.882828 73.724831 -10.474094 7.065966 6.416155 124.221809 0.000000 0.000000 0.000000 -5.029329 0.204289 -9.832431 -8.603516 0.000000 0.000000 -30.897579 -7.999701 -8.671402 -2.957607 -0.090307 -0.002318 99.461334 -11.051378 -147.455627 -28.308064 -19.376120 9.943731 63.627010 -50.302784 -11.074102 2.957607 0.090307 -0.002334 -77.379440 5.708975 -106.444199 16.959566 6.147681 5.624957 -84.349541 37.160580 2.295487 16.155598 21.723593 9.803562 4.357419 -11.869428 4.966985 44.592682 -11.740561 -8.447736 19.305162 -8.105691 -27.682512 5.749858 6.697393 4.320991 39.709351 15.607356 12.495696 
40.922596 73.756104 -10.346069 7.089071 6.658160 124.429710 0.000000 0.000000 0.000000 -4.443457 0.379715 -10.049039 -8.603516 0.000000 0.000000 -33.573963 -8.488560 -8.135788 -2.957607 -0.090307 -0.002318 102.065857 -13.355531 -144.904892 -22.684393 -16.121817 10.330327 39.034328 -40.244751 -2.719945 2.957607 0.090307 -0.002334 -78.412521 9.379205 -106.376076 11.969851 5.446388 4.804074 -63.759148 29.296696 7.277285 15.902741 22.367813 9.811867 4.290889 -11.799111 4.910209 43.502728 -10.169200 -7.872771 18.902130 -9.696797 -27.929899 5.780233 6.867866 4.202440 38.925373 15.022243 12.442825 
40.794563 73.212585 -10.252140 6.955382 6.931538 124.633453 0.000000 0.000000 0.000000 -2.920463 1.102083 -10.183164 -8.603516 0.000000 0.000000 -36.255989 -9.136397 -7.379389 -2.957607 -0.090307 -0.002318 103.776009 -15.955738 -143.764236 -17.465271 -13.208058 9.049773 15.128796 -30.617987 3.125298 2.957607 0.090307 -0.002334 -79.586990 13.267182 -105.983086 6.510728 4.251116 4.098820 -43.559467 20.970512 12.098300 14.731687 23.170053 9.980361 4.785842 -11.797867 4.858920 41.023453 -8.616274 -7.444457 17.431515 -11.943612 -28.219810 6.550883 7.069022 4.090307 37.440075 14.557487 12.314116 
40.518559 72.282265 -10.200924 6.630501 6.916771 124.981750 0.000000 0.000000 0.000000 -1.299502 1.845229 -10.364093 -8.603516 0.000000 0.000000 -38.375404 -9.560568 -6.598748 -2.957607 -0.090307 -0.002318 104.954750 -18.246420 -141.617798 -12.432394 -10.609306 7.367612 -5.426262 -19.587301 8.994349 2.957607 0.090307 -0.002334 -80.443184 17.208004 -103.205978 1.079965 3.247228 2.655822 -24.353657 13.696904 17.015705 12.934621 23.558701 10.388134 5.415672 -11.805644 4.614870 38.279163 -7.607255 -7.442210 15.150297 -14.558678 -28.392693 7.806969 7.315385 4.022904 35.624657 14.083871 12.223448 
40.094692 70.708710 -10.141102 5.974426 6.362028 125.400978 0.000000 0.000000 0.000000 0.078208 2.646482 -10.454926 -8.603516 0.000000 0.000000 -38.958889 -9.668673 -5.998431 -2.957607 -0.090307 -0.002318 104.858772 -19.624882 -137.711319 -8.200469 -8.300596 5.559932 -23.607664 -10.064264 15.122380 2.957607 0.090307 -0.002334 -80.889961 19.323065 -99.611038 -3.898048 2.716845 0.990038 -6.562186 6.032034 21.963160 10.025304 23.706495 10.594868 6.261355 -11.842007 4.337079 34.903008 -7.204252 -8.476536 11.544388 -17.308918 -28.162691 9.518930 7.503962 4.072087 33.385349 13.954240 11.894390 
39.525574 68.628815 -10.109833 5.172474 5.738412 125.899757 0.000000 0.000000 0.000000 1.888476 3.591803 -10.320722 -8.603516 0.000000 0.000000 -37.581577 -9.448215 -5.477310 -2.957607 -0.090307 -0.002318 104.212502 -20.186195 -134.426575 -5.522462 -6.227655 3.582301 -38.086781 -0.539960 20.962265 2.957607 0.090307 -0.002334 -80.509636 19.936565 -96.584465 -6.874422 3.583292 -0.092461 10.208446 -1.255503 24.968500 6.987852 23.254559 10.782926 7.201175 -12.057767 3.756284 31.943211 -8.223037 -10.411978 6.881367 -20.162903 -27.162405 12.006919 7.668933 4.285455 31.074585 13.760736 11.162246 
38.842697 66.104996 -10.058613 4.333878 5.141585 126.395180 0.000000 0.000000 0.000000 4.164738 4.753099 -9.956601 -8.603516 0.000000 0.000000 -33.306866 -8.649562 -5.272187 -2.957607 -0.090307 -0.002318 101.950325 -19.906582 -134.402466 -6.396715 -6.487389 3.801658 -45.272099 6.620370 19.076118 2.957607 0.090307 -0.002334 -79.977974 20.090551 -95.748489 -5.454343 4.042482 0.021902 19.148811 -1.436378 25.308025 4.071913 21.523392 10.533413 8.256459 -11.824083 3.199206 28.763512 -9.203751 -13.006241 1.773814 -22.483955 -25.357454 14.886966 7.854660 4.755322 29.206095 13.724774 10.078186 
38.088776 63.145985 -9.990299 3.350564 4.582032 126.792107 0.000000 0.000000 0.000000 6.896321 6.224529 -9.316173 -8.603516 0.000000 0.000000 -28.511915 -7.862011 -5.126361 -2.957607 -0.090307 -0.002318 98.327301 -19.690420 -134.064407 -9.612649 -7.431032 3.951177 -49.884480 11.301978 16.144707 2.957607 0.090307 -0.002334 -79.232719 19.542727 -95.699005 -3.073366 3.823296 0.407327 25.918970 -0.880785 26.285608 0.799323 19.836996 10.613028 10.120865 -11.569863 2.436861 25.052155 -9.852447 -14.489553 -3.809555 -24.275370 -23.106993 18.180794 8.070690 5.207515 26.890881 13.470222 8.306897 
37.166832 59.478367 -9.816713 2.222322 4.039938 127.305382 0.000000 0.000000 0.000000 10.165684 7.893314 -8.345222 -8.603516 0.000000 0.000000 -23.644159 -7.325229 -5.352397 -2.957607 -0.090307 -0.002318 92.829308 -18.838923 -133.846527 -14.570484 -10.057721 4.416559 -46.388195 9.943394 15.405172 2.957607 0.090307 -0.002334 -76.698334 17.240896 -96.219734 3.033072 4.133627 1.842836 26.190481 -0.482794 26.338022 -1.074398 16.903900 9.909879 12.432442 -10.913694 2.162628 17.324793 -7.885494 -15.144303 -9.248493 -25.251226 -20.331425 22.573265 8.035527 5.249963 20.183300 12.267266 7.659336 
36.327484 56.024212 -9.611864 1.340483 3.563480 127.759560 0.000000 0.000000 0.000000 12.768731 9.042225 -7.363761 -8.603516 0.000000 0.000000 -18.576435 -6.479264 -5.814880 -2.957607 -0.090307 -0.002318 86.888145 -18.081045 -131.929108 -20.407253 -13.122834 5.870516 -39.762905 9.652154 14.492705 2.957607 0.090307 -0.002334 -73.451805 14.605721 -95.852768 10.182479 5.610864 3.489755 25.680483 0.382777 25.947111 -0.898923 12.882749 8.629619 13.641753 -9.809937 2.376655 10.258830 -5.133431 -15.270980 -14.335383 -25.690845 -17.092449 27.546606 8.158745 5.494287 13.353404 10.364116 7.347885 
35.385712 52.558613 -9.284637 1.026768 2.968274 127.914932 0.000000 0.000000 0.000000 15.944386 9.443813 -6.143766 -8.603516 0.000000 0.000000 -14.566611 -5.515564 -6.307095 -2.957607 -0.090307 -0.002318 79.318398 -18.109110 -129.896408 -27.309277 -18.277523 7.397662 -31.452694 7.034686 13.266503 2.957607 0.090307 -0.002334 -67.418228 12.536837 -96.877182 19.759712 8.179791 6.141697 25.745707 1.214923 25.553604 -1.484186 9.222871 6.402065 15.401588 -9.325731 2.094966 4.414329 -1.368818 -14.393230 -18.963449 -26.578041 -13.937999 31.865711 9.509628 6.320861 7.858139 8.357709 5.806993 
34.446770 49.519829 -8.911983 0.752567 2.314254 127.892097 0.000000 0.000000 0.000000 19.694042 9.315163 -4.779340 -8.603516 0.000000 0.000000 -12.187624 -4.547961 -6.488431 -2.957607 -0.090307 -0.002318 68.976563 -22.156094 -127.101692 -35.760418 -24.453009 7.600303 -21.232821 4.138847 13.164192 2.957607 0.090307 -0.002334 -57.577892 12.662403 -96.621765 29.074766 11.915537 7.544683 27.020155 2.508331 24.047043 -1.346537 5.911137 4.382390 16.632160 -9.130753 2.475961 -1.236264 1.063536 -11.548170 -23.690418 -27.498022 -11.732737 36.836933 9.607615 7.105630 2.661849 7.862560 4.609067 
33.581818 46.984787 -8.476563 0.488511 1.757749 127.886375 0.000000 0.000000 0.000000 23.655165 9.237617 -3.652383 -8.603516 0.000000 0.000000 -11.634797 -4.050836 -6.633366 -2.957607 -0.090307 -0.002318 55.994038 -28.027254 -122.452644 -43.649708 -30.636621 5.734047 -11.919639 0.989818 15.931728 2.957607 0.090307 -0.002334 -45.440136 15.405415 -95.912651 37.820488 15.155255 7.336060 27.486118 3.828876 23.783270 -1.288987 3.290626 2.078954 17.490862 -9.032922 3.212224 -6.623409 2.737929 -7.246917 -27.459473 -27.966597 -9.712355 41.070526 9.999268 7.609199 -2.353972 7.353634 3.555874 
32.796513 45.012974 -7.998652 0.078138 1.044921 128.009415 0.000000 0.000000 0.000000 27.125607 9.207521 -2.803539 -8.603516 0.000000 0.000000 -13.391494 -4.175489 -6.919116 -2.957607 -0.090307 -0.002318 40.490334 -34.513302 -115.566895 -49.454601 -34.917370 3.870208 -4.719911 -2.063034 19.077515 2.957607 0.090307 -0.002334 -31.875483 19.683081 -94.160507 44.082336 17.553759 6.597836 27.800325 5.008695 24.121429 -1.813344 1.647603 0.207169 18.662962 -9.107332 3.313554 -11.933697 3.842682 -2.730171 -31.049057 -28.509008 -8.334144 45.042534 10.389764 8.306374 -7.501990 6.611312 2.890156 
